{
    "asset" : {
        "generator" : "Khronos glTF Blender I/O v1.1.46",
        "version" : "2.0"
    },
    "scene" : 0,
    "scenes" : [
        {
            "name" : "Scene",
            "nodes" : [
                0,
                1,
                2
            ]
        }
    ],
    "nodes" : [
        {
            "mesh" : 0,
            "name" : "board0",
            "translation" : [
                0.10000000149011612,
                1,
                0
            ]
        },
        {
            "mesh" : 1,
            "name" : "board1",
            "translation" : [
                1.5,
                1,
                0
            ]
        },
        {
            "mesh" : 2,
            "name" : "cannon",
            "rotation" : [
                -0.0020234468393027782,
                -0.7071039080619812,
                0.0020234473049640656,
                0.7071038484573364
            ],
            "translation" : [
                -0.054659921675920486,
                0.8176905512809753,
                -0.011788487434387207
            ]
        }
    ],
    "materials" : [
        {
            "doubleSided" : true,
            "emissiveFactor" : [
                0,
                0,
                0
            ],
            "name" : "Material",
            "pbrMetallicRoughness" : {
                "baseColorFactor" : [
                    0.8000000715255737,
                    0.3052099645137787,
                    0.11170556396245956,
                    1
                ],
                "metallicFactor" : 0.29441624879837036,
                "roughnessFactor" : 0.6842639446258545
            }
        },
        {
            "doubleSided" : true,
            "emissiveFactor" : [
                0,
                0,
                0
            ],
            "name" : "cannon_mat",
            "pbrMetallicRoughness" : {
                "baseColorFactor" : [
                    0.053145281970500946,
                    0.12594389915466309,
                    0.03193835914134979,
                    1
                ],
                "metallicFactor" : 0.4568527936935425,
                "roughnessFactor" : 0.34771573543548584
            }
        }
    ],
    "meshes" : [
        {
            "name" : "Cube",
            "primitives" : [
                {
                    "attributes" : {
                        "POSITION" : 0,
                        "NORMAL" : 1,
                        "TEXCOORD_0" : 2
                    },
                    "indices" : 3,
                    "material" : 0
                }
            ]
        },
        {
            "name" : "Cube.001",
            "primitives" : [
                {
                    "attributes" : {
                        "POSITION" : 4,
                        "NORMAL" : 5,
                        "TEXCOORD_0" : 6
                    },
                    "indices" : 3,
                    "material" : 0
                }
            ]
        },
        {
            "name" : "BezierCurve",
            "primitives" : [
                {
                    "attributes" : {
                        "POSITION" : 7,
                        "NORMAL" : 8,
                        "TEXCOORD_0" : 9
                    },
                    "indices" : 10,
                    "material" : 1
                }
            ]
        }
    ],
    "accessors" : [
        {
            "bufferView" : 0,
            "componentType" : 5126,
            "count" : 424,
            "max" : [
                -0.7010487914085388,
                0.08022996783256531,
                1
            ],
            "min" : [
                -1,
                -1.127357840538025,
                -1
            ],
            "type" : "VEC3"
        },
        {
            "bufferView" : 1,
            "componentType" : 5126,
            "count" : 424,
            "type" : "VEC3"
        },
        {
            "bufferView" : 2,
            "componentType" : 5126,
            "count" : 424,
            "type" : "VEC2"
        },
        {
            "bufferView" : 3,
            "componentType" : 5123,
            "count" : 642,
            "type" : "SCALAR"
        },
        {
            "bufferView" : 4,
            "componentType" : 5126,
            "count" : 424,
            "max" : [
                -0.7010487914085388,
                0.08022996783256531,
                1
            ],
            "min" : [
                -1,
                -1.127357840538025,
                -1
            ],
            "type" : "VEC3"
        },
        {
            "bufferView" : 5,
            "componentType" : 5126,
            "count" : 424,
            "type" : "VEC3"
        },
        {
            "bufferView" : 6,
            "componentType" : 5126,
            "count" : 424,
            "type" : "VEC2"
        },
        {
            "bufferView" : 7,
            "componentType" : 5126,
            "count" : 806,
            "max" : [
                2.0211663246154785,
                0.5174514055252075,
                0.5322203636169434
            ],
            "min" : [
                -1.262980341911316,
                -0.5469894409179688,
                -0.5322204828262329
            ],
            "type" : "VEC3"
        },
        {
            "bufferView" : 8,
            "componentType" : 5126,
            "count" : 806,
            "type" : "VEC3"
        },
        {
            "bufferView" : 9,
            "componentType" : 5126,
            "count" : 806,
            "type" : "VEC2"
        },
        {
            "bufferView" : 10,
            "componentType" : 5123,
            "count" : 4320,
            "type" : "SCALAR"
        }
    ],
    "bufferViews" : [
        {
            "buffer" : 0,
            "byteLength" : 5088,
            "byteOffset" : 0
        },
        {
            "buffer" : 0,
            "byteLength" : 5088,
            "byteOffset" : 5088
        },
        {
            "buffer" : 0,
            "byteLength" : 3392,
            "byteOffset" : 10176
        },
        {
            "buffer" : 0,
            "byteLength" : 1284,
            "byteOffset" : 13568
        },
        {
            "buffer" : 0,
            "byteLength" : 5088,
            "byteOffset" : 14852
        },
        {
            "buffer" : 0,
            "byteLength" : 5088,
            "byteOffset" : 19940
        },
        {
            "buffer" : 0,
            "byteLength" : 3392,
            "byteOffset" : 25028
        },
        {
            "buffer" : 0,
            "byteLength" : 9672,
            "byteOffset" : 28420
        },
        {
            "buffer" : 0,
            "byteLength" : 9672,
            "byteOffset" : 38092
        },
        {
            "buffer" : 0,
            "byteLength" : 6448,
            "byteOffset" : 47764
        },
        {
            "buffer" : 0,
            "byteLength" : 8640,
            "byteOffset" : 54212
        }
    ],
    "buffers" : [
        {
            "byteLength" : 62852,
            "uri" : "data:application/octet-stream;base64,"
        }
    ]
}
